<svg aria-hidden="true" style="position: absolute; width: 0; height: 0; overflow: hidden;" version="1.1" xmlns="http://www.w3.org/2000/svg" xmlns:xlink="http://www.w3.org/1999/xlink">
<defs>
<symbol id="icon-ST-AROW" viewBox="0 0 46 32">
<path fill="none" stroke="#e9f4f6" style="stroke: var(--color1, #e9f4f6)" stroke-linejoin="miter" stroke-linecap="butt" stroke-miterlimit="4" stroke-width="0.4741" d="M33.896 3.793l-1.185-0.948 1.185-0.948"></path>
<path fill="none" stroke="#e9f4f6" style="stroke: var(--color1, #e9f4f6)" stroke-linejoin="miter" stroke-linecap="butt" stroke-miterlimit="4" stroke-width="0.4741" d="M32.814 2.844h12.46v29.156"></path>
<path fill="#4e6e77" style="fill: var(--color2, #4e6e77)" d="M0.929 3.586c-0.162 0-0.303-0.024-0.425-0.072-0.121-0.051-0.215-0.109-0.281-0.174-0.066-0.068-0.099-0.129-0.099-0.182 0-0.025 0.006-0.051 0.019-0.076 0.015-0.028 0.033-0.051 0.053-0.068 0.023-0.020 0.046-0.030 0.068-0.030 0.030 0 0.059 0.015 0.087 0.046 0.030 0.030 0.067 0.067 0.11 0.11 0.045 0.040 0.104 0.076 0.174 0.106s0.163 0.046 0.277 0.046c0.106 0 0.198-0.016 0.277-0.049 0.078-0.035 0.139-0.087 0.182-0.155 0.046-0.071 0.068-0.159 0.068-0.265 0-0.109-0.023-0.197-0.068-0.265s-0.106-0.125-0.182-0.171c-0.073-0.046-0.154-0.086-0.243-0.121-0.086-0.035-0.174-0.071-0.265-0.106-0.089-0.038-0.169-0.083-0.243-0.137-0.073-0.056-0.133-0.126-0.178-0.212s-0.068-0.195-0.068-0.326c0-0.139 0.025-0.254 0.076-0.345s0.118-0.163 0.201-0.216c0.083-0.053 0.173-0.090 0.269-0.11 0.099-0.023 0.195-0.034 0.288-0.034 0.068 0 0.14 0.005 0.216 0.015s0.148 0.025 0.216 0.045c0.068 0.020 0.124 0.047 0.167 0.080 0.043 0.030 0.064 0.067 0.064 0.11 0 0.020-0.005 0.044-0.015 0.072-0.010 0.025-0.025 0.049-0.046 0.072-0.020 0.020-0.046 0.030-0.076 0.030-0.028 0-0.062-0.011-0.102-0.034-0.040-0.025-0.095-0.049-0.163-0.072-0.066-0.025-0.153-0.038-0.262-0.038-0.091 0-0.177 0.013-0.258 0.038-0.078 0.025-0.142 0.067-0.19 0.125-0.045 0.058-0.068 0.135-0.068 0.231 0 0.091 0.023 0.166 0.068 0.224s0.105 0.106 0.178 0.144c0.073 0.038 0.154 0.073 0.243 0.106 0.089 0.030 0.177 0.067 0.265 0.11 0.089 0.040 0.169 0.091 0.243 0.152 0.076 0.061 0.137 0.14 0.182 0.239 0.046 0.096 0.068 0.217 0.068 0.364 0 0.182-0.037 0.333-0.11 0.451-0.071 0.116-0.168 0.204-0.292 0.262-0.124 0.056-0.267 0.083-0.429 0.083zM2.454 4.424c-0.043 0-0.080-0.013-0.11-0.038-0.028-0.023-0.042-0.048-0.042-0.076v-2.442c0-0.033 0.014-0.059 0.042-0.080 0.030-0.020 0.067-0.030 0.11-0.030s0.078 0.010 0.106 0.030c0.028 0.020 0.042 0.047 0.042 0.080v0.155c0.043-0.073 0.107-0.139 0.193-0.197 0.086-0.061 0.191-0.091 0.315-0.091 0.126 0 0.241 0.034 0.345 0.102 0.104 0.066 0.186 0.153 0.247 0.262s0.091 0.23 0.091 0.364v0.387c0 0.126-0.032 0.247-0.095 0.36-0.061 0.111-0.142 0.202-0.243 0.273-0.101 0.068-0.212 0.102-0.334 0.102-0.114 0-0.216-0.029-0.307-0.087-0.091-0.061-0.157-0.13-0.197-0.209v1.020c0 0.028-0.016 0.053-0.049 0.076-0.030 0.025-0.068 0.038-0.114 0.038zM3.045 3.301c0.076 0 0.147-0.022 0.212-0.064s0.119-0.1 0.159-0.171c0.040-0.071 0.061-0.143 0.061-0.216v-0.387c0-0.073-0.020-0.144-0.061-0.212s-0.094-0.124-0.159-0.167c-0.066-0.043-0.139-0.064-0.22-0.064-0.068 0-0.135 0.019-0.201 0.057-0.063 0.035-0.116 0.086-0.159 0.152-0.040 0.063-0.061 0.142-0.061 0.235v0.489c0 0.033 0.018 0.077 0.053 0.133 0.038 0.056 0.088 0.106 0.152 0.152 0.066 0.043 0.14 0.064 0.224 0.064zM4.737 3.586c-0.142 0-0.263-0.040-0.364-0.121-0.099-0.083-0.148-0.211-0.148-0.383 0-0.139 0.038-0.247 0.114-0.322 0.076-0.078 0.179-0.131 0.311-0.159 0.134-0.030 0.288-0.046 0.463-0.046h0.182v-0.080c0-0.076-0.014-0.149-0.042-0.22-0.028-0.073-0.072-0.133-0.133-0.178-0.058-0.048-0.139-0.072-0.243-0.072-0.088 0-0.159 0.009-0.212 0.027-0.051 0.018-0.091 0.037-0.121 0.057-0.030 0.018-0.057 0.027-0.080 0.027-0.038 0-0.067-0.018-0.087-0.053-0.020-0.038-0.030-0.073-0.030-0.106 0-0.040 0.028-0.077 0.083-0.11s0.125-0.059 0.209-0.080c0.083-0.020 0.166-0.030 0.247-0.030 0.177 0 0.319 0.035 0.425 0.106s0.182 0.162 0.228 0.273c0.048 0.111 0.072 0.23 0.072 0.357v0.971c0 0.030-0.015 0.057-0.045 0.080-0.028 0.023-0.064 0.034-0.11 0.034-0.040 0-0.075-0.011-0.102-0.034s-0.042-0.049-0.042-0.080v-0.152c-0.066 0.076-0.145 0.144-0.239 0.205s-0.205 0.091-0.334 0.091zM4.836 3.332c0.073 0 0.144-0.020 0.212-0.061 0.071-0.040 0.129-0.091 0.174-0.152 0.048-0.061 0.072-0.119 0.072-0.174v-0.197h-0.133c-0.106 0-0.207 0.006-0.303 0.019-0.094 0.013-0.169 0.040-0.228 0.083-0.058 0.040-0.087 0.106-0.087 0.197 0 0.099 0.028 0.171 0.083 0.216s0.125 0.068 0.209 0.068zM6.908 3.586c-0.174 0-0.319-0.033-0.432-0.099-0.111-0.066-0.195-0.153-0.25-0.262-0.053-0.111-0.080-0.236-0.080-0.375v-0.379c0-0.137 0.027-0.26 0.080-0.372 0.056-0.111 0.139-0.2 0.25-0.265 0.114-0.066 0.257-0.099 0.429-0.099 0.111 0 0.209 0.014 0.292 0.042s0.148 0.062 0.193 0.102 0.068 0.080 0.068 0.118c0 0.020-0.006 0.043-0.019 0.068-0.010 0.023-0.025 0.043-0.045 0.061-0.018 0.018-0.039 0.027-0.064 0.027s-0.053-0.011-0.083-0.034c-0.028-0.023-0.067-0.044-0.118-0.064-0.048-0.023-0.116-0.034-0.205-0.034-0.154 0-0.271 0.040-0.349 0.121-0.076 0.081-0.114 0.191-0.114 0.33v0.379c0 0.139 0.038 0.249 0.114 0.33 0.078 0.081 0.196 0.121 0.353 0.121 0.091 0 0.162-0.011 0.212-0.034 0.051-0.025 0.090-0.048 0.118-0.068 0.030-0.023 0.059-0.034 0.087-0.034s0.052 0.009 0.072 0.027c0.020 0.015 0.035 0.034 0.046 0.057 0.013 0.023 0.019 0.046 0.019 0.068 0 0.038-0.024 0.078-0.072 0.121-0.048 0.040-0.115 0.076-0.201 0.106-0.086 0.028-0.186 0.042-0.3 0.042zM8.121 1.265c-0.053 0-0.1-0.018-0.14-0.053-0.038-0.038-0.057-0.081-0.057-0.129s0.019-0.090 0.057-0.125c0.040-0.035 0.087-0.053 0.14-0.053 0.056 0 0.101 0.018 0.137 0.053 0.038 0.035 0.057 0.077 0.057 0.125s-0.019 0.091-0.057 0.129c-0.035 0.035-0.081 0.053-0.137 0.053zM8.121 3.556c-0.046 0-0.083-0.011-0.114-0.034-0.028-0.025-0.042-0.052-0.042-0.080v-1.574c0-0.033 0.014-0.059 0.042-0.080 0.030-0.020 0.068-0.030 0.114-0.030 0.043 0 0.080 0.010 0.11 0.030 0.033 0.020 0.049 0.047 0.049 0.080v1.574c0 0.028-0.016 0.054-0.049 0.080-0.030 0.023-0.067 0.034-0.11 0.034zM9.29 3.586c-0.142 0-0.263-0.040-0.364-0.121-0.099-0.083-0.148-0.211-0.148-0.383 0-0.139 0.038-0.247 0.114-0.322 0.076-0.078 0.18-0.131 0.311-0.159 0.134-0.030 0.288-0.046 0.463-0.046h0.182v-0.080c0-0.076-0.014-0.149-0.042-0.22-0.028-0.073-0.072-0.133-0.133-0.178-0.058-0.048-0.139-0.072-0.243-0.072-0.088 0-0.159 0.009-0.212 0.027-0.051 0.018-0.091 0.037-0.121 0.057-0.030 0.018-0.057 0.027-0.080 0.027-0.038 0-0.067-0.018-0.087-0.053-0.020-0.038-0.030-0.073-0.030-0.106 0-0.040 0.028-0.077 0.083-0.11s0.125-0.059 0.209-0.080c0.083-0.020 0.166-0.030 0.247-0.030 0.177 0 0.319 0.035 0.425 0.106s0.182 0.162 0.228 0.273c0.048 0.111 0.072 0.23 0.072 0.357v0.971c0 0.030-0.015 0.057-0.046 0.080-0.028 0.023-0.064 0.034-0.11 0.034-0.040 0-0.075-0.011-0.102-0.034s-0.042-0.049-0.042-0.080v-0.152c-0.066 0.076-0.145 0.144-0.239 0.205s-0.205 0.091-0.334 0.091zM9.389 3.332c0.073 0 0.144-0.020 0.212-0.061 0.071-0.040 0.129-0.091 0.174-0.152 0.048-0.061 0.072-0.119 0.072-0.174v-0.197h-0.133c-0.106 0-0.207 0.006-0.303 0.019-0.094 0.013-0.169 0.040-0.228 0.083-0.058 0.040-0.087 0.106-0.087 0.197 0 0.099 0.028 0.171 0.083 0.216s0.125 0.068 0.209 0.068zM10.952 3.556c-0.046 0-0.083-0.011-0.114-0.034-0.028-0.025-0.042-0.052-0.042-0.080v-2.659c0-0.033 0.014-0.059 0.042-0.080 0.030-0.020 0.068-0.030 0.114-0.030 0.043 0 0.080 0.010 0.11 0.030 0.033 0.020 0.049 0.047 0.049 0.080v2.659c0 0.028-0.016 0.054-0.049 0.080-0.030 0.023-0.067 0.034-0.11 0.034zM12.898 3.556c-0.038 0-0.075-0.009-0.11-0.027-0.033-0.018-0.049-0.046-0.049-0.083v-2.549c0-0.038 0.015-0.066 0.046-0.083 0.030-0.020 0.063-0.030 0.099-0.030h1.339c0.038 0 0.066 0.015 0.083 0.045s0.027 0.062 0.027 0.095c0 0.038-0.010 0.072-0.030 0.102-0.018 0.030-0.044 0.046-0.080 0.046h-1.164v0.963h0.595c0.035 0 0.062 0.014 0.080 0.042 0.020 0.028 0.030 0.059 0.030 0.095 0 0.030-0.009 0.059-0.027 0.087s-0.046 0.042-0.083 0.042h-0.595v1.145c0 0.038-0.016 0.066-0.049 0.083s-0.070 0.027-0.11 0.027zM14.613 3.586c-0.142 0-0.263-0.040-0.364-0.121-0.099-0.083-0.148-0.211-0.148-0.383 0-0.139 0.038-0.247 0.114-0.322 0.076-0.078 0.179-0.131 0.311-0.159 0.134-0.030 0.288-0.046 0.463-0.046h0.182v-0.080c0-0.076-0.014-0.149-0.042-0.22-0.028-0.073-0.072-0.133-0.133-0.178-0.058-0.048-0.139-0.072-0.243-0.072-0.088 0-0.159 0.009-0.212 0.027-0.051 0.018-0.091 0.037-0.121 0.057-0.030 0.018-0.057 0.027-0.080 0.027-0.038 0-0.067-0.018-0.087-0.053-0.020-0.038-0.030-0.073-0.030-0.106 0-0.040 0.028-0.077 0.083-0.11s0.125-0.059 0.209-0.080c0.083-0.020 0.166-0.030 0.247-0.030 0.177 0 0.319 0.035 0.425 0.106s0.182 0.162 0.228 0.273c0.048 0.111 0.072 0.23 0.072 0.357v0.971c0 0.030-0.015 0.057-0.046 0.080-0.028 0.023-0.064 0.034-0.11 0.034-0.040 0-0.075-0.011-0.102-0.034s-0.042-0.049-0.042-0.080v-0.152c-0.066 0.076-0.145 0.144-0.239 0.205s-0.205 0.091-0.334 0.091zM14.712 3.332c0.073 0 0.144-0.020 0.212-0.061 0.071-0.040 0.129-0.091 0.174-0.152 0.048-0.061 0.072-0.119 0.072-0.174v-0.197h-0.133c-0.106 0-0.207 0.006-0.303 0.019-0.094 0.013-0.169 0.040-0.228 0.083-0.058 0.040-0.087 0.106-0.087 0.197 0 0.099 0.028 0.171 0.083 0.216s0.125 0.068 0.209 0.068zM16.667 3.59c-0.033 0-0.063-0.006-0.091-0.019-0.025-0.010-0.043-0.027-0.053-0.049l-0.622-1.574c-0.003-0.005-0.006-0.014-0.011-0.027-0.003-0.013-0.004-0.024-0.004-0.034 0-0.025 0.010-0.048 0.030-0.068 0.023-0.023 0.049-0.039 0.080-0.049 0.033-0.013 0.063-0.019 0.091-0.019 0.020 0 0.040 0.005 0.061 0.015s0.034 0.025 0.042 0.046l0.478 1.289 0.478-1.274c0.008-0.023 0.019-0.040 0.034-0.053 0.018-0.015 0.040-0.023 0.068-0.023 0.025 0 0.053 0.006 0.083 0.019 0.030 0.010 0.058 0.027 0.083 0.049 0.025 0.020 0.038 0.043 0.038 0.068 0 0.013-0.003 0.024-0.008 0.034-0.003 0.010-0.005 0.019-0.008 0.027l-0.622 1.574c-0.010 0.020-0.029 0.037-0.057 0.049s-0.058 0.019-0.091 0.019zM18.038 3.556c-0.043 0-0.080-0.011-0.11-0.034-0.028-0.025-0.042-0.052-0.042-0.080v-1.574c0-0.033 0.014-0.059 0.042-0.080 0.030-0.020 0.067-0.030 0.11-0.030s0.078 0.010 0.106 0.030c0.028 0.020 0.042 0.047 0.042 0.080v0.178c0.028-0.053 0.066-0.102 0.114-0.148 0.048-0.048 0.104-0.087 0.167-0.118 0.066-0.030 0.138-0.046 0.216-0.046h0.129c0.033 0 0.061 0.014 0.083 0.042 0.025 0.028 0.038 0.062 0.038 0.102 0 0.038-0.013 0.071-0.038 0.099-0.023 0.028-0.051 0.042-0.083 0.042h-0.129c-0.081 0-0.158 0.023-0.231 0.068s-0.134 0.11-0.182 0.193c-0.046 0.081-0.068 0.179-0.068 0.296v0.865c0 0.028-0.016 0.054-0.049 0.080-0.030 0.023-0.068 0.034-0.114 0.034zM19.509 1.265c-0.053 0-0.1-0.018-0.14-0.053-0.038-0.038-0.057-0.081-0.057-0.129s0.019-0.090 0.057-0.125c0.040-0.035 0.087-0.053 0.14-0.053 0.056 0 0.101 0.018 0.137 0.053 0.038 0.035 0.057 0.077 0.057 0.125s-0.019 0.091-0.057 0.129c-0.035 0.035-0.081 0.053-0.137 0.053zM19.509 3.556c-0.046 0-0.083-0.011-0.114-0.034-0.028-0.025-0.042-0.052-0.042-0.080v-1.574c0-0.033 0.014-0.059 0.042-0.080 0.030-0.020 0.068-0.030 0.114-0.030 0.043 0 0.080 0.010 0.11 0.030 0.033 0.020 0.049 0.047 0.049 0.080v1.574c0 0.028-0.016 0.054-0.049 0.080-0.030 0.023-0.067 0.034-0.11 0.034zM20.981 3.586c-0.174 0-0.319-0.033-0.432-0.099-0.111-0.066-0.195-0.153-0.25-0.262-0.053-0.111-0.080-0.236-0.080-0.375v-0.379c0-0.137 0.027-0.26 0.080-0.372 0.056-0.111 0.139-0.2 0.25-0.265 0.114-0.066 0.257-0.099 0.429-0.099 0.111 0 0.209 0.014 0.292 0.042s0.148 0.062 0.193 0.102c0.046 0.040 0.068 0.080 0.068 0.118 0 0.020-0.006 0.043-0.019 0.068-0.010 0.023-0.025 0.043-0.046 0.061-0.018 0.018-0.039 0.027-0.064 0.027s-0.053-0.011-0.083-0.034c-0.028-0.023-0.067-0.044-0.118-0.064-0.048-0.023-0.116-0.034-0.205-0.034-0.154 0-0.271 0.040-0.349 0.121-0.076 0.081-0.114 0.191-0.114 0.33v0.379c0 0.139 0.038 0.249 0.114 0.33 0.078 0.081 0.196 0.121 0.353 0.121 0.091 0 0.162-0.011 0.212-0.034 0.051-0.025 0.090-0.048 0.118-0.068 0.030-0.023 0.059-0.034 0.087-0.034s0.052 0.009 0.072 0.027c0.020 0.015 0.035 0.034 0.046 0.057 0.013 0.023 0.019 0.046 0.019 0.068 0 0.038-0.024 0.078-0.072 0.121-0.048 0.040-0.115 0.076-0.201 0.106-0.086 0.028-0.186 0.042-0.3 0.042zM23.159 3.556c-0.035 0-0.068-0.009-0.099-0.027-0.030-0.020-0.046-0.049-0.046-0.087v-2.549c0-0.038 0.016-0.066 0.049-0.083 0.035-0.018 0.072-0.027 0.11-0.027 0.040 0 0.077 0.009 0.11 0.027s0.049 0.045 0.049 0.083v2.374h1.039c0.036 0 0.061 0.015 0.076 0.046 0.018 0.028 0.027 0.061 0.027 0.099 0 0.035-0.009 0.068-0.027 0.099-0.015 0.030-0.040 0.046-0.076 0.046h-1.214zM25.308 3.586c-0.142 0-0.263-0.040-0.364-0.121-0.099-0.083-0.148-0.211-0.148-0.383 0-0.139 0.038-0.247 0.114-0.322 0.076-0.078 0.179-0.131 0.311-0.159 0.134-0.030 0.288-0.046 0.463-0.046h0.182v-0.080c0-0.076-0.014-0.149-0.042-0.22-0.028-0.073-0.072-0.133-0.133-0.178-0.058-0.048-0.139-0.072-0.243-0.072-0.089 0-0.159 0.009-0.212 0.027-0.051 0.018-0.091 0.037-0.121 0.057-0.030 0.018-0.057 0.027-0.080 0.027-0.038 0-0.067-0.018-0.087-0.053-0.020-0.038-0.030-0.073-0.030-0.106 0-0.040 0.028-0.077 0.083-0.11s0.125-0.059 0.209-0.080 0.165-0.030 0.247-0.030c0.177 0 0.319 0.035 0.425 0.106s0.182 0.162 0.228 0.273c0.048 0.111 0.072 0.23 0.072 0.357v0.971c0 0.030-0.015 0.057-0.046 0.080-0.028 0.023-0.064 0.034-0.11 0.034-0.041 0-0.075-0.011-0.102-0.034s-0.042-0.049-0.042-0.080v-0.152c-0.066 0.076-0.146 0.144-0.239 0.205s-0.205 0.091-0.334 0.091zM25.407 3.332c0.073 0 0.144-0.020 0.212-0.061 0.071-0.040 0.129-0.091 0.174-0.152 0.048-0.061 0.072-0.119 0.072-0.174v-0.197h-0.133c-0.106 0-0.207 0.006-0.303 0.019-0.094 0.013-0.169 0.040-0.228 0.083-0.058 0.040-0.087 0.106-0.087 0.197 0 0.099 0.028 0.171 0.083 0.216s0.125 0.068 0.209 0.068zM27.296 3.586c-0.121 0-0.229-0.015-0.322-0.046-0.094-0.033-0.167-0.071-0.22-0.114s-0.080-0.086-0.080-0.129c0-0.020 0.005-0.040 0.015-0.061 0.010-0.023 0.023-0.042 0.038-0.057 0.018-0.018 0.037-0.027 0.057-0.027 0.030 0 0.063 0.015 0.099 0.046 0.035 0.028 0.083 0.057 0.144 0.087s0.148 0.046 0.262 0.046c0.134 0 0.228-0.024 0.281-0.072 0.053-0.051 0.080-0.106 0.080-0.167 0-0.078-0.023-0.138-0.068-0.178-0.046-0.043-0.104-0.076-0.174-0.099-0.071-0.025-0.145-0.049-0.224-0.072s-0.153-0.051-0.224-0.083c-0.071-0.035-0.129-0.083-0.174-0.144-0.043-0.063-0.064-0.147-0.064-0.25 0-0.083 0.020-0.166 0.061-0.247s0.106-0.148 0.197-0.201c0.091-0.056 0.212-0.083 0.364-0.083 0.088 0 0.173 0.010 0.254 0.030 0.083 0.018 0.151 0.043 0.201 0.076 0.053 0.030 0.080 0.063 0.080 0.099 0 0.015-0.005 0.035-0.015 0.061s-0.024 0.048-0.042 0.068c-0.018 0.020-0.041 0.030-0.068 0.030-0.020 0-0.049-0.009-0.087-0.027-0.035-0.020-0.080-0.039-0.133-0.057-0.050-0.018-0.113-0.027-0.186-0.027-0.083 0-0.151 0.015-0.201 0.045-0.050 0.028-0.087 0.062-0.11 0.102-0.023 0.038-0.034 0.077-0.034 0.118 0 0.063 0.022 0.112 0.064 0.148 0.046 0.035 0.104 0.064 0.174 0.087 0.073 0.020 0.149 0.042 0.228 0.064 0.078 0.020 0.153 0.051 0.224 0.091 0.071 0.038 0.129 0.091 0.174 0.159s0.068 0.159 0.068 0.273c0 0.154-0.056 0.278-0.167 0.372-0.111 0.091-0.268 0.137-0.47 0.137zM29.070 3.556c-0.205 0-0.361-0.046-0.47-0.137-0.106-0.091-0.159-0.236-0.159-0.436v-1.953c0-0.033 0.017-0.059 0.049-0.080s0.068-0.030 0.106-0.030c0.041 0 0.077 0.010 0.11 0.030s0.049 0.047 0.049 0.080v0.728h0.478c0.030 0 0.053 0.013 0.068 0.038 0.018 0.025 0.027 0.054 0.027 0.087s-0.009 0.062-0.027 0.087c-0.015 0.023-0.038 0.034-0.068 0.034h-0.478v0.978c0 0.109 0.023 0.186 0.068 0.231 0.048 0.043 0.13 0.064 0.247 0.064h0.118c0.046 0 0.080 0.014 0.102 0.042s0.034 0.059 0.034 0.095c0 0.035-0.011 0.068-0.034 0.099-0.023 0.028-0.057 0.042-0.102 0.042h-0.118zM0.413 8.296c-0.035 0-0.068-0.009-0.099-0.027-0.030-0.020-0.045-0.049-0.045-0.087v-2.549c0-0.038 0.016-0.066 0.049-0.083 0.035-0.018 0.072-0.027 0.11-0.027 0.040 0 0.077 0.009 0.11 0.027s0.049 0.045 0.049 0.083v2.374h1.039c0.035 0 0.061 0.015 0.076 0.046 0.018 0.028 0.027 0.061 0.027 0.099 0 0.035-0.009 0.068-0.027 0.099-0.015 0.030-0.040 0.046-0.076 0.046h-1.214zM2.784 8.327c-0.134 0-0.258-0.034-0.372-0.102-0.114-0.071-0.205-0.162-0.273-0.273s-0.102-0.231-0.102-0.36v-0.387c0-0.129 0.033-0.248 0.099-0.356 0.068-0.111 0.159-0.201 0.273-0.269s0.239-0.102 0.375-0.102c0.134 0 0.258 0.034 0.372 0.102 0.114 0.066 0.205 0.153 0.273 0.262 0.071 0.109 0.106 0.23 0.106 0.364v0.387c0 0.126-0.035 0.247-0.106 0.36-0.068 0.111-0.159 0.202-0.273 0.273-0.114 0.068-0.238 0.102-0.372 0.102zM2.784 8.042c0.081 0 0.153-0.021 0.216-0.064 0.066-0.043 0.119-0.099 0.159-0.167 0.040-0.071 0.061-0.144 0.061-0.22v-0.387c0-0.073-0.020-0.144-0.061-0.212-0.038-0.068-0.090-0.124-0.155-0.167s-0.139-0.064-0.22-0.064c-0.081 0-0.154 0.021-0.22 0.064s-0.118 0.099-0.155 0.167c-0.038 0.068-0.057 0.139-0.057 0.212v0.387c0 0.076 0.019 0.149 0.057 0.22 0.038 0.068 0.090 0.124 0.155 0.167s0.139 0.064 0.22 0.064zM4.239 8.296c-0.045 0-0.083-0.011-0.114-0.034-0.028-0.025-0.042-0.052-0.042-0.080v-1.574c0-0.033 0.014-0.059 0.042-0.080 0.030-0.020 0.068-0.030 0.114-0.030 0.040 0 0.075 0.010 0.102 0.030s0.042 0.047 0.042 0.080v0.155c0.040-0.073 0.104-0.139 0.19-0.197 0.086-0.061 0.192-0.091 0.319-0.091 0.121 0 0.233 0.034 0.334 0.102 0.101 0.066 0.182 0.153 0.243 0.262s0.091 0.23 0.091 0.364v0.979c0 0.038-0.016 0.067-0.049 0.087-0.033 0.018-0.070 0.027-0.11 0.027-0.038 0-0.073-0.009-0.106-0.027-0.033-0.020-0.049-0.049-0.049-0.087v-0.979c0-0.073-0.020-0.144-0.061-0.212-0.038-0.068-0.090-0.124-0.155-0.167s-0.138-0.064-0.216-0.064c-0.068 0-0.134 0.019-0.197 0.057-0.063 0.035-0.115 0.086-0.155 0.152-0.040 0.063-0.061 0.142-0.061 0.235v0.978c0 0.028-0.016 0.054-0.049 0.080-0.030 0.023-0.067 0.034-0.11 0.034zM6.814 9.165c-0.149 0-0.283-0.021-0.402-0.064-0.119-0.040-0.214-0.1-0.284-0.178-0.068-0.076-0.102-0.166-0.102-0.269 0-0.106 0.030-0.193 0.091-0.262 0.063-0.066 0.135-0.116 0.216-0.152-0.056-0.020-0.102-0.049-0.14-0.087-0.035-0.040-0.053-0.096-0.053-0.167s0.018-0.126 0.053-0.167c0.035-0.043 0.081-0.081 0.137-0.114-0.068-0.056-0.121-0.124-0.159-0.205-0.038-0.083-0.057-0.174-0.057-0.273v-0.125c0-0.124 0.028-0.233 0.083-0.326s0.134-0.167 0.235-0.22c0.104-0.053 0.224-0.080 0.36-0.080 0.088 0 0.169 0.014 0.243 0.042 0.076 0.025 0.142 0.061 0.197 0.106 0.040-0.083 0.082-0.145 0.125-0.186 0.045-0.040 0.090-0.061 0.133-0.061 0.045 0 0.080 0.013 0.102 0.038s0.034 0.052 0.034 0.080c0 0.020-0.006 0.038-0.019 0.053s-0.028 0.027-0.045 0.034c-0.028 0.008-0.061 0.023-0.099 0.045-0.035 0.023-0.070 0.061-0.102 0.114 0.038 0.048 0.066 0.104 0.083 0.167 0.020 0.061 0.030 0.125 0.030 0.193v0.125c0 0.119-0.029 0.226-0.087 0.322s-0.139 0.172-0.243 0.228c-0.104 0.053-0.223 0.080-0.356 0.080-0.104 0-0.196-0.019-0.277-0.057-0.025 0.015-0.048 0.033-0.068 0.053-0.020 0.018-0.030 0.043-0.030 0.076 0 0.053 0.028 0.091 0.083 0.114 0.058 0.023 0.131 0.039 0.22 0.049s0.182 0.021 0.281 0.034c0.099 0.013 0.192 0.035 0.281 0.068 0.088 0.030 0.161 0.078 0.216 0.144 0.058 0.066 0.087 0.157 0.087 0.273 0 0.124-0.034 0.226-0.102 0.307-0.068 0.083-0.161 0.145-0.277 0.186-0.114 0.040-0.243 0.061-0.387 0.061zM6.807 8.945c0.144 0 0.258-0.030 0.341-0.091 0.083-0.058 0.125-0.137 0.125-0.235 0-0.071-0.021-0.126-0.064-0.167-0.043-0.038-0.099-0.067-0.167-0.087-0.068-0.018-0.14-0.030-0.216-0.038-0.073-0.005-0.14-0.011-0.201-0.019-0.081 0.025-0.152 0.063-0.212 0.114-0.058 0.051-0.087 0.116-0.087 0.197 0 0.099 0.044 0.177 0.133 0.235 0.088 0.061 0.205 0.091 0.349 0.091zM6.795 7.64c0.116 0 0.207-0.039 0.273-0.118s0.099-0.177 0.099-0.296v-0.125c0-0.116-0.033-0.214-0.099-0.292s-0.158-0.118-0.277-0.118c-0.119 0-0.211 0.039-0.277 0.118-0.063 0.078-0.095 0.176-0.095 0.292v0.121c0 0.119 0.033 0.219 0.099 0.3 0.066 0.078 0.158 0.118 0.277 0.118zM8.839 8.327c-0.164 0-0.31-0.030-0.436-0.091-0.126-0.063-0.226-0.149-0.3-0.258-0.073-0.111-0.11-0.24-0.11-0.387v-0.398c0-0.129 0.034-0.248 0.102-0.356 0.071-0.109 0.163-0.196 0.277-0.262s0.239-0.099 0.375-0.099c0.132 0 0.252 0.030 0.36 0.091 0.111 0.061 0.2 0.143 0.265 0.247 0.068 0.104 0.102 0.224 0.102 0.36 0 0.101-0.016 0.174-0.049 0.22-0.033 0.043-0.075 0.070-0.125 0.080s-0.104 0.015-0.159 0.015h-0.834v0.114c0 0.142 0.051 0.254 0.152 0.338 0.101 0.081 0.231 0.121 0.391 0.121 0.094 0 0.168-0.013 0.224-0.038s0.101-0.049 0.137-0.072c0.035-0.025 0.067-0.038 0.095-0.038s0.051 0.009 0.068 0.027c0.020 0.015 0.035 0.034 0.046 0.057s0.015 0.043 0.015 0.061c0 0.033-0.024 0.071-0.072 0.114-0.048 0.040-0.118 0.077-0.209 0.11-0.088 0.030-0.193 0.046-0.315 0.046zM8.309 7.276h0.702c0.068 0 0.113-0.008 0.133-0.023 0.023-0.018 0.034-0.051 0.034-0.099 0-0.076-0.019-0.145-0.057-0.209-0.035-0.066-0.086-0.119-0.152-0.159s-0.14-0.061-0.224-0.061c-0.078 0-0.15 0.019-0.216 0.057-0.066 0.035-0.119 0.085-0.159 0.148s-0.061 0.133-0.061 0.209v0.137zM10.147 8.296c-0.043 0-0.080-0.011-0.11-0.034-0.028-0.025-0.042-0.052-0.042-0.080v-1.574c0-0.033 0.014-0.059 0.042-0.080 0.030-0.020 0.067-0.030 0.11-0.030s0.078 0.010 0.106 0.030c0.028 0.020 0.042 0.047 0.042 0.080v0.178c0.028-0.053 0.066-0.102 0.114-0.148 0.048-0.048 0.104-0.087 0.167-0.118 0.066-0.030 0.138-0.045 0.216-0.045h0.129c0.033 0 0.061 0.014 0.083 0.042 0.025 0.028 0.038 0.062 0.038 0.102 0 0.038-0.013 0.071-0.038 0.099-0.023 0.028-0.051 0.042-0.083 0.042h-0.129c-0.081 0-0.158 0.023-0.231 0.068s-0.134 0.11-0.182 0.193c-0.046 0.081-0.068 0.179-0.068 0.296v0.865c0 0.028-0.016 0.054-0.049 0.080-0.030 0.023-0.068 0.034-0.114 0.034zM13.098 8.327c-0.162 0-0.303-0.024-0.425-0.072-0.121-0.051-0.215-0.109-0.281-0.174-0.066-0.068-0.099-0.129-0.099-0.182 0-0.025 0.006-0.051 0.019-0.076 0.015-0.028 0.033-0.051 0.053-0.068 0.023-0.020 0.046-0.030 0.068-0.030 0.030 0 0.059 0.015 0.087 0.045 0.030 0.030 0.067 0.067 0.11 0.11 0.046 0.040 0.104 0.076 0.174 0.106s0.163 0.046 0.277 0.046c0.106 0 0.198-0.016 0.277-0.049 0.078-0.035 0.139-0.087 0.182-0.155 0.046-0.071 0.068-0.159 0.068-0.265 0-0.109-0.023-0.197-0.068-0.265s-0.106-0.125-0.182-0.171c-0.073-0.045-0.154-0.086-0.243-0.121-0.086-0.035-0.174-0.071-0.265-0.106-0.088-0.038-0.169-0.083-0.243-0.137-0.073-0.056-0.133-0.126-0.178-0.212s-0.068-0.195-0.068-0.326c0-0.139 0.025-0.254 0.076-0.345s0.118-0.163 0.201-0.216c0.083-0.053 0.173-0.090 0.269-0.11 0.099-0.023 0.195-0.034 0.288-0.034 0.068 0 0.14 0.005 0.216 0.015s0.148 0.025 0.216 0.045c0.068 0.020 0.124 0.047 0.167 0.080 0.043 0.030 0.064 0.067 0.064 0.11 0 0.020-0.005 0.044-0.015 0.072-0.010 0.025-0.025 0.049-0.046 0.072-0.020 0.020-0.046 0.030-0.076 0.030-0.028 0-0.062-0.011-0.102-0.034-0.040-0.025-0.095-0.049-0.163-0.072-0.066-0.025-0.153-0.038-0.262-0.038-0.091 0-0.177 0.013-0.258 0.038-0.078 0.025-0.142 0.067-0.19 0.125-0.046 0.058-0.068 0.135-0.068 0.231 0 0.091 0.023 0.166 0.068 0.224s0.105 0.106 0.178 0.144c0.073 0.038 0.154 0.073 0.243 0.106 0.088 0.030 0.177 0.067 0.265 0.11 0.088 0.040 0.169 0.091 0.243 0.152 0.076 0.061 0.137 0.14 0.182 0.239 0.046 0.096 0.068 0.217 0.068 0.364 0 0.182-0.037 0.333-0.11 0.451-0.071 0.116-0.168 0.204-0.292 0.262-0.124 0.056-0.267 0.083-0.429 0.083zM15.146 8.327c-0.134 0-0.258-0.034-0.372-0.102-0.114-0.071-0.205-0.162-0.273-0.273s-0.102-0.231-0.102-0.36v-0.387c0-0.129 0.033-0.248 0.099-0.356 0.068-0.111 0.159-0.201 0.273-0.269s0.239-0.102 0.375-0.102c0.134 0 0.258 0.034 0.372 0.102 0.114 0.066 0.205 0.153 0.273 0.262 0.071 0.109 0.106 0.23 0.106 0.364v0.387c0 0.126-0.035 0.247-0.106 0.36-0.068 0.111-0.159 0.202-0.273 0.273-0.114 0.068-0.238 0.102-0.372 0.102zM15.146 8.042c0.081 0 0.153-0.021 0.216-0.064 0.066-0.043 0.119-0.099 0.159-0.167 0.040-0.071 0.061-0.144 0.061-0.22v-0.387c0-0.073-0.020-0.144-0.061-0.212-0.038-0.068-0.090-0.124-0.155-0.167s-0.139-0.064-0.22-0.064c-0.081 0-0.154 0.021-0.22 0.064s-0.118 0.099-0.155 0.167c-0.038 0.068-0.057 0.139-0.057 0.212v0.387c0 0.076 0.019 0.149 0.057 0.22 0.038 0.068 0.090 0.124 0.155 0.167s0.139 0.064 0.22 0.064zM16.6 8.296c-0.043 0-0.080-0.010-0.11-0.030-0.028-0.020-0.042-0.047-0.042-0.080v-2.063c0-0.131 0.030-0.25 0.091-0.356 0.061-0.109 0.142-0.195 0.243-0.258 0.104-0.063 0.216-0.095 0.338-0.095h0.133c0.040 0 0.072 0.014 0.095 0.042s0.034 0.061 0.034 0.099c0 0.035-0.011 0.067-0.034 0.095s-0.054 0.042-0.095 0.042h-0.080c-0.078 0-0.149 0.019-0.212 0.057-0.061 0.035-0.109 0.085-0.144 0.148-0.035 0.061-0.053 0.128-0.053 0.201v0.402h0.52c0.030 0 0.054 0.013 0.072 0.038s0.027 0.054 0.027 0.087c0 0.030-0.009 0.058-0.027 0.083s-0.042 0.038-0.072 0.038h-0.52v1.441c0 0.033-0.016 0.059-0.049 0.080s-0.071 0.030-0.114 0.030zM18.154 8.327c-0.142 0-0.263-0.040-0.364-0.121-0.099-0.083-0.148-0.211-0.148-0.383 0-0.139 0.038-0.247 0.114-0.322 0.076-0.078 0.18-0.131 0.311-0.159 0.134-0.030 0.288-0.045 0.463-0.045h0.182v-0.080c0-0.076-0.014-0.149-0.042-0.22-0.028-0.073-0.072-0.133-0.133-0.178-0.058-0.048-0.139-0.072-0.243-0.072-0.088 0-0.159 0.009-0.212 0.027-0.051 0.018-0.091 0.037-0.121 0.057-0.030 0.018-0.057 0.027-0.080 0.027-0.038 0-0.067-0.018-0.087-0.053-0.020-0.038-0.030-0.073-0.030-0.106 0-0.040 0.028-0.077 0.083-0.11s0.125-0.059 0.209-0.080c0.083-0.020 0.166-0.030 0.247-0.030 0.177 0 0.319 0.035 0.425 0.106s0.182 0.162 0.228 0.273c0.048 0.111 0.072 0.23 0.072 0.356v0.971c0 0.030-0.015 0.057-0.046 0.080-0.028 0.023-0.064 0.034-0.11 0.034-0.040 0-0.075-0.011-0.102-0.034s-0.042-0.049-0.042-0.080v-0.152c-0.066 0.076-0.145 0.144-0.239 0.205s-0.205 0.091-0.334 0.091zM18.253 8.073c0.073 0 0.144-0.020 0.212-0.061 0.071-0.040 0.129-0.091 0.174-0.152 0.048-0.061 0.072-0.119 0.072-0.174v-0.197h-0.133c-0.106 0-0.207 0.006-0.303 0.019-0.094 0.013-0.169 0.040-0.228 0.083-0.058 0.040-0.087 0.106-0.087 0.197 0 0.099 0.028 0.171 0.083 0.216s0.125 0.068 0.209 0.068zM19.741 8.319c-0.058 0-0.106-0.020-0.144-0.061s-0.057-0.086-0.057-0.137c0-0.056 0.019-0.102 0.057-0.14 0.038-0.040 0.086-0.061 0.144-0.061 0.051 0 0.095 0.020 0.133 0.061 0.040 0.038 0.061 0.085 0.061 0.14 0 0.051-0.020 0.096-0.061 0.137-0.038 0.040-0.082 0.061-0.133 0.061z"></path>
</symbol>
</defs>
</svg>
